<svg xmlns="http://www.w3.org/2000/svg" xmlns:xlink="http://www.w3.org/1999/xlink" contentStyleType="text/css" data-diagram-type="STATE" height="224px" preserveAspectRatio="none" style="width:598px;height:224px;background:#FFFFFF;" version="1.1" viewBox="0 0 598 224" width="598px" zoomAndPan="magnify"><defs/><g><ellipse cx="44.25" cy="16" fill="#222222" rx="10" ry="10" style="stroke:#222222;stroke-width:1;"/><g id="Pending"><rect fill="#F1F1F1" height="50" rx="12.5" ry="12.5" style="stroke:#181818;stroke-width:0.5;" width="74.5029" x="7" y="86.31"/><line style="stroke:#181818;stroke-width:0.5;" x1="7" x2="81.5029" y1="112.7983" y2="112.7983"/><text fill="#000000" font-family="sans-serif" font-size="14" lengthAdjust="spacing" textLength="54.5029" x="17" y="104.8452">Pending</text></g><g id="Scheduled"><rect fill="#F1F1F1" height="50.6211" rx="12.5" ry="12.5" style="stroke:#181818;stroke-width:0.5;" width="141.6523" x="116.43" y="86"/><line style="stroke:#181818;stroke-width:0.5;" x1="116.43" x2="258.0823" y1="112.4883" y2="112.4883"/><text fill="#000000" font-family="sans-serif" font-size="14" lengthAdjust="spacing" textLength="69.3574" x="152.5775" y="104.5352">Scheduled</text><text fill="#000000" font-family="sans-serif" font-size="12" lengthAdjust="spacing" textLength="121.6523" x="121.43" y="129.0898">POD is being created</text></g><g id="Running"><rect fill="#F1F1F1" height="50" rx="12.5" ry="12.5" style="stroke:#181818;stroke-width:0.5;" width="76.3828" x="293.06" y="86.31"/><line style="stroke:#181818;stroke-width:0.5;" x1="293.06" x2="369.4428" y1="112.7983" y2="112.7983"/><text fill="#000000" font-family="sans-serif" font-size="14" lengthAdjust="spacing" textLength="56.3828" x="303.06" y="104.8452">Running</text></g><g id="Succeeded"><rect fill="#F1F1F1" height="50" rx="12.5" ry="12.5" style="stroke:#181818;stroke-width:0.5;" width="91.5928" x="499.46" y="86.31"/><line style="stroke:#181818;stroke-width:0.5;" x1="499.46" x2="591.0528" y1="112.7983" y2="112.7983"/><text fill="#000000" font-family="sans-serif" font-size="14" lengthAdjust="spacing" textLength="71.5928" x="509.46" y="104.8452">Succeeded</text></g><g id="Failed"><rect fill="#F1F1F1" height="50" rx="12.5" ry="12.5" style="stroke:#181818;stroke-width:0.5;" width="59.9424" x="404.28" y="86.31"/><line style="stroke:#181818;stroke-width:0.5;" x1="404.28" x2="464.2224" y1="112.7983" y2="112.7983"/><text fill="#000000" font-family="sans-serif" font-size="14" lengthAdjust="spacing" textLength="39.9424" x="414.28" y="104.8452">Failed</text></g><ellipse cx="489.25" cy="207.62" fill="none" rx="11" ry="11" style="stroke:#222222;stroke-width:1;"/><ellipse cx="489.25" cy="207.62" fill="#222222" rx="6" ry="6" style="stroke:#222222;stroke-width:1;"/><!--link *start* to Pending--><g class="link" data-entity-1=".start." data-entity-2="Pending" data-source-line="2" data-uid="lnk4" id="link_.start._Pending"><path d="M44.25,26.29 C44.25,40.12 44.25,60.59 44.25,80.14" fill="none" id="*start*-to-Pending" style="stroke:#181818;stroke-width:1;"/><polygon fill="#181818" points="44.25,86.14,48.25,77.14,44.25,81.14,40.25,77.14,44.25,86.14" style="stroke:#181818;stroke-width:1;"/></g><!--link Pending to Scheduled--><g class="link" data-entity-1="Pending" data-entity-2="Scheduled" data-source-line="4" data-uid="lnk6" id="link_Pending_Scheduled"><path d="M81.96,111.31 C93.34,111.31 98.72,111.31 110.1,111.31" fill="none" id="Pending-to-Scheduled" style="stroke:#181818;stroke-width:1;"/><polygon fill="#181818" points="116.1,111.31,107.1,107.31,111.1,111.31,107.1,115.31,116.1,111.31" style="stroke:#181818;stroke-width:1;"/></g><!--link Scheduled to Running--><g class="link" data-entity-1="Scheduled" data-entity-2="Running" data-source-line="8" data-uid="lnk8" id="link_Scheduled_Running"><path d="M258.41,111.31 C269.88,111.31 275.36,111.31 286.84,111.31" fill="none" id="Scheduled-to-Running" style="stroke:#181818;stroke-width:1;"/><polygon fill="#181818" points="292.84,111.31,283.84,107.31,287.84,111.31,283.84,115.31,292.84,111.31" style="stroke:#181818;stroke-width:1;"/></g><!--link Running to Succeeded--><g class="link" data-entity-1="Running" data-entity-2="Succeeded" data-source-line="9" data-uid="lnk10" id="link_Running_Succeeded"><path d="M356.39,85.92 C369.58,74.4 386.73,62.02 404.75,56 C429.62,47.69 438.69,48.3 463.75,56 C483.2,61.98 497.4541,70.6533 512.1941,82.1833" fill="none" id="Running-to-Succeeded" style="stroke:#181818;stroke-width:1;"/><polygon fill="#181818" points="516.92,85.88,512.2956,77.1843,512.9817,82.7994,507.3667,83.4855,516.92,85.88" style="stroke:#181818;stroke-width:1;"/></g><!--link Running to Failed--><g class="link" data-entity-1="Running" data-entity-2="Failed" data-source-line="10" data-uid="lnk12" id="link_Running_Failed"><path d="M369.88,111.31 C381.19,111.31 386.51,111.31 397.82,111.31" fill="none" id="Running-to-Failed" style="stroke:#181818;stroke-width:1;"/><polygon fill="#181818" points="403.82,111.31,394.82,107.31,398.82,111.31,394.82,115.31,403.82,111.31" style="stroke:#181818;stroke-width:1;"/></g><!--link Failed to *end*--><g class="link" data-entity-1="Failed" data-entity-2=".end." data-source-line="12" data-uid="lnk14" id="link_Failed_.end."><path d="M448.42,136.6 C460.13,156.68 473.0756,178.888 481.1356,192.698" fill="none" id="Failed-to-*end*" style="stroke:#181818;stroke-width:1;"/><polygon fill="#181818" points="484.16,197.88,483.0781,188.0907,481.6397,193.5617,476.1687,192.1233,484.16,197.88" style="stroke:#181818;stroke-width:1;"/></g><!--link Succeeded to *end*--><g class="link" data-entity-1="Succeeded" data-entity-2=".end." data-source-line="13" data-uid="lnk15" id="link_Succeeded_.end."><path d="M530.83,136.6 C518.9,156.68 505.7033,178.9109 497.5033,192.7209" fill="none" id="Succeeded-to-*end*" style="stroke:#181818;stroke-width:1;"/><polygon fill="#181818" points="494.44,197.88,502.4744,192.1836,496.9928,193.5808,495.5956,188.0992,494.44,197.88" style="stroke:#181818;stroke-width:1;"/></g><!--SRC=[YzQALT3LjLC8ICrBoSnBv-A2CXI0Oi796QaffJcfALnSSAQLGe2_Yq9ciK9IAaXLSb5gOWcA0f36eDAyF91XK1fiLcboScfg2b0fag1ROYROT0WDTaUqLYmNN2rS1000]--></g></svg>